# xmcd
#
# Track frame offsets:
#	150
#	10487
#	25999
#	40331
#	51674
#	66850
#	80181
#	95941
#	108280
#	125403
#	141727
#	151324
#	166055
#	174042
#	188667
#
# Disc length: 2860 seconds
#
# Revision: 1
# Processed by: cddbd v1.5.2PL0 Copyright (c) Steve Scherf et al.
# Submitted via: audiograbber 1.83.01
#
DISCID=d30b2a0f
DTITLE=Whitey - Is This Blues Enough 4U (Baby)?
DYEAR=2002
DGENRE=
TTITLE0=Rainy and Wendy
TTITLE1=Get Yer Ya-Ya' s Out
TTITLE2=Hangman' s Blues
TTITLE3=Don' t Tread On Hope
TTITLE4=Hot' lanta Ryder
TTITLE5=Dead Shrimps Blues
TTITLE6=When The Levee Breaks
TTITLE7=Desperation Blues
TTITLE8=Pussy Willow Stomp
TTITLE9=Dizzy Miss Lizzy
TTITLE10=Rollin' And Tumblin' Blues
TTITLE11=Can' t Be Satisfied
TTITLE12=Escape From NYC
TTITLE13=Sixth Of The Sixth
TTITLE14=Apocalypse Blues
EXTD=
EXTT0=
EXTT1=
EXTT2=
EXTT3=
EXTT4=
EXTT5=
EXTT6=
EXTT7=
EXTT8=
EXTT9=
EXTT10=
EXTT11=
EXTT12=
EXTT13=
EXTT14=
PLAYORDER=
